<svg viewBox="0 0 4000 1024" xmlns="http://www.w3.org/2000/svg" fill-rule="evenodd" clip-rule="evenodd" stroke-linejoin="round" stroke-miterlimit="2"><path d="M101.664 126.506c11.274-19.548 22.527-39.11 33.803-58.658-5.312-9.375-10.765-18.655-16.09-28.008-22.438-.233-44.867.187-67.3-.22-5.908 9.12-10.942 18.802-16.49 28.161 5.734 9.697 11.157 19.57 16.168 27.872 10.65.109 21.81.214 32.461-.085 4.4-8.459 9.244-16.711 13.993-24.926-5.826-.03-11.679-.096-17.499-.075-1.79 3.143-3.544 6.298-5.308 9.458-4.778.112-9.888.213-14.82.247-2.394-4.108-4.724-8.265-7.177-12.34 2.318-4.41 4.735-8.759 7.458-12.927 16.588.454 33.185-.082 49.779.29 2.27 4.192 4.706 8.28 7.104 12.396-6.08 10.413-20.621 35.18-25.183 42.946-16.675.211-35.01.363-49.625.492-8.383-14.434-16.639-28.942-25.035-43.37 8.173-14.447 16.721-28.677 24.738-43.207 22.591-.368 45.21.029 67.803-.223-2.98-5.157-5.97-10.367-8.861-15.384-24.482.03-46.52.039-67.814 0C22.739 28.23 11.133 48.177 0 67.335c11.717 20.361 24.039 41.742 34.001 59.188 22.553-.137 45.106-.023 67.663-.017z" fill="url(#_Linear1)" fill-rule="nonzero" transform="translate(12 11.996) scale(7.38187)"/><path d="M1184.275 676.955v-48.5c5.5 5 12 9.5 20 13 7.5 4 16 7.5 24.5 10 8.5 3 17 5 25.5 6.5s16.5 2 24 2c25.5 0 44-4.5 56.5-14s18.5-23 18.5-40.5c0-9.5-2-17.5-6-24.5s-10-13.5-17-19.5c-7.5-5.5-16-11-26-16.5-10-5-21-10.5-32.5-16.5-12.5-6.5-23.5-12.5-34-19-11-6-20-13-28-21-7.5-7.5-14-16-18.5-26-4-9.5-6.5-21-6.5-34 0-16 3.5-30 10.5-41.5 7-12 16-21.5 27.5-29.5 11.5-7.5 24.5-13 39-17 14.5-3.5 29.5-5.5 44.5-5.5 34.5 0 60 4 75.5 12.5v46c-20.5-14-47-21.5-79.5-21.5-9 0-18 1-27 3s-17 5-24 9c-7 4.5-12.5 10-17 16.5s-6.5 15-6.5 24.5c0 9 1.5 16.5 5 23s8.5 12.5 15 18 14 10.5 23.5 15.5 20 10.5 32.5 16.5c12.5 6.5 24.5 13 35.5 19.5 11.5 7 21 14.5 29.5 23 8.5 8 15.5 17.5 20.5 27.5 4.5 10 7 21.5 7 34.5 0 17.5-3 32-10 44-6.5 12-16 21.5-27.5 29s-24.5 13-39.5 16.5c-15 3-30.5 5-47.5 5-5.5 0-12-.5-20.5-1.5-8-1-16.5-2-24.5-4-8.5-1.5-16.5-3.5-24.5-6-7.5-3-13.5-5.5-18-8.5zM1466.404 340.955h41v350h-41zM1840.954 690.955h-50l-80.5-134c-2.5-4-5-10-8-17.5h-1c-1.5 4-4.5 9.5-8.5 17.5l-83 134h-50l117-176-108-174h50.5l71.5 123c4.5 8 9 16 12.5 24.5h1c5-11 9.5-19.5 13.5-25.5l74.5-122h47l-110 173.5 111.5 176.5zM2212.844 690.955h-181.5v-350h41v313h140.5v37zM2552.344 690.955h-45.5l-37-98h-148.5l-35 98h-45.5l134-350h42.5l135 350zm-96-135l-55-149c-2-5-3.5-13-5.5-23.5h-1c-1.5 10-3.5 17.5-5.5 23.5l-54.5 149h121.5zM2603.854 690.955v-350h99.5c30.5 0 54.5 7.5 72 22 18 15 26.5 34 26.5 58 0 20-5 37-16 51.5-10.5 15-25.5 25.5-44.5 31.5v1c23.5 2.5 42.5 11.5 56.5 26.5 14.5 15.5 21.5 35 21.5 59 0 30-11 54-32.5 72.5-21 18.5-48.5 28-81 28h-102zm41-313v113h42c22.5 0 40-5.5 53-16 12.5-11 19-26.5 19-46 0-34-22-51-67-51h-47zm0 150v126h55.5c24 0 43-6 56-17 13.5-11.5 20-27 20-47 0-41.5-28-62-84.5-62h-47zM3031.474 696.955c-49.5 0-89.5-16.5-119.5-49-29.5-33-44.5-75.5-44.5-128 0-56 15-101 45.5-134.5s72-50.5 124.5-50.5c48 0 87 16.5 116.5 49s44.5 75 44.5 127.5c0 57-15 102.5-45.5 135.5-30 33.5-70.5 50-121.5 50zm3-325c-37 0-66.5 13.5-89.5 40s-34.5 61.5-34.5 104.5 11 78 33.5 104c22.5 26.5 51.5 39.5 87.5 39.5 38.5 0 68.5-12.5 91-37.5 22-25 33-60 33-105.5 0-46-10.5-82-32-107s-51.5-38-89-38zM3518.424 690.955h-49l-58.5-98c-5.5-9.5-10.5-17-15.5-23.5s-10.5-11.5-15.5-15.5c-5.5-4.5-11-7-17.5-9-6-2-12.5-3-20.5-3h-33.5v149h-41v-350h104.5c15 0 29.5 2 42 5.5 13 4 24.5 10 34 17.5 9.5 8 17 17.5 22.5 29.5 5 11.5 8 25 8 40.5 0 12.5-2 23.5-5.5 33.5-4 10.5-9 19.5-16 27.5-6.5 8-14.5 14.5-24 20.5-9.5 5.5-20.5 10-32.5 13v1c6 2.5 11 5.5 15.5 9 4.5 3 8.5 7 12.5 11.5 3.5 4.5 7.5 10 11.5 15.5 3.5 6 8 12.5 12.5 20.5l66 105zm-210-313v127h55.5c10.5 0 20-1.5 28.5-4.5 8.5-3.5 16.5-7.5 22.5-13.5 6.5-6 11.5-13 15-21 3.5-8.5 5.5-18 5.5-28.5 0-18.5-6-33-18.5-43.5-12-10.5-29.5-16-52.5-16h-56zM3549.994 676.955v-48.5c5.5 5 12 9.5 20 13 7.5 4 16 7.5 24.5 10 8.5 3 17 5 25.5 6.5s16.5 2 24 2c25.5 0 44-4.5 56.5-14s18.5-23 18.5-40.5c0-9.5-2-17.5-6-24.5s-10-13.5-17-19.5c-7.5-5.5-16-11-26-16.5-10-5-21-10.5-32.5-16.5-12.5-6.5-23.5-12.5-34-19-11-6-20-13-28-21-7.5-7.5-14-16-18.5-26-4-9.5-6.5-21-6.5-34 0-16 3.5-30 10.5-41.5 7-12 16-21.5 27.5-29.5 11.5-7.5 24.5-13 39-17 14.5-3.5 29.5-5.5 44.5-5.5 34.5 0 60 4 75.5 12.5v46c-20.5-14-47-21.5-79.5-21.5-9 0-18 1-27 3s-17 5-24 9c-7 4.5-12.5 10-17 16.5s-6.5 15-6.5 24.5c0 9 1.5 16.5 5 23s8.5 12.5 15 18 14 10.5 23.5 15.5 20 10.5 32.5 16.5c12.5 6.5 24.5 13 35.5 19.5 11.5 7 21 14.5 29.5 23 8.5 8 15.5 17.5 20.5 27.5 4.5 10 7 21.5 7 34.5 0 17.5-3 32-10 44-6.5 12-16 21.5-27.5 29s-24.5 13-39.5 16.5c-15 3-30.5 5-47.5 5-5.5 0-12-.5-20.5-1.5-8-1-16.5-2-24.5-4-8.5-1.5-16.5-3.5-24.5-6-7.5-3-13.5-5.5-18-8.5z" fill-rule="nonzero"/><defs><linearGradient id="_Linear1" x1="0" y1="0" x2="1" y2="0" gradientUnits="userSpaceOnUse" gradientTransform="rotate(-44.975 163.14 67.262) scale(190.278)"><stop offset="0" stop-color="#9f1923"/><stop offset="1" stop-color="#e30183"/></linearGradient></defs></svg>