<svg xmlns="http://www.w3.org/2000/svg" viewBox="0 0 2337.742 444.386">
  <path id="maze" fill="#e30183" d="M384.936 444.323c42.69-73.88 85.298-147.815 127.99-221.696-20.112-35.434-40.76-70.507-60.924-105.86-84.956-.88-169.88.707-254.82-.833-22.37 34.472-41.43 71.064-62.434 106.44 21.707 36.65 42.24 73.966 61.215 105.34 40.326.413 82.58.81 122.91-.32 16.656-31.97 35.002-63.16 52.982-94.21-22.06-.11-44.22-.36-66.256-.28-6.78 11.876-13.42 23.8-20.1 35.746-18.09.423-37.44.805-56.11.933-9.07-15.526-17.89-31.24-27.18-46.637 8.78-16.668 17.93-33.107 28.24-48.86 62.81 1.716 125.65-.31 188.48 1.098 8.6 15.84 17.82 31.292 26.9 46.848-23.02 39.358-78.08 132.963-95.35 162.314-63.14.8-132.56 1.373-187.9 1.86-31.74-54.554-63-109.386-94.79-163.916 30.943-54.605 63.31-108.386 93.667-163.303 85.536-1.39 171.18.11 256.725-.842C406.9 38.653 395.58 18.963 384.63 0c-92.697.115-176.142.148-256.77.005C86.1 72.885 42.155 148.278 0 220.683c44.365 76.958 91.02 157.765 128.74 223.703 85.394-.517 170.788-.086 256.196-.063z"/>
  <path id="text" fill="#FFF" d="M597.14 338.002v-19.507q26.573 16.917 53.834 16.917 28.987 0 43.998-11.91 15.01-12.085 15.01-33.663 0-18.99-10.178-30.21-10.008-11.39-43.654-30.9-37.614-21.93-47.62-36.6-10.008-14.85-10.008-34.18 0-26.24 20.36-44.54t54.35-18.3q22.085 0 44.17 7.42v17.96q-21.74-9.84-46.413-9.84-25.19 0-40.03 12.78-14.67 12.77-14.67 32.45 0 18.99 10.01 30.21 10.18 11.22 43.65 30.55 34.68 19.68 46.07 35.04 11.56 15.19 11.56 35.04 0 28.48-19.84 46.433-19.67 17.954-55.73 17.954-12.77 0-29.51-3.97-16.57-3.97-25.37-9.15zm183.758 8.803V99.262h17.082v247.543zm214.815 0l-56.94-94.425q-5.348-8.804-9.144-17.262h-.87q-4.66 9.494-9.84 17.262l-57.98 94.425h-20.53l78.16-124.807-73.5-122.736h20.53l55.4 93.045q4.312 7.25 8.97 16.572h.69l9.145-16.58 55.04-93.05h19.843l-74.19 122.4 75.92 125.16zm161.326 0V99.262h17.08V331.27h99.21v15.535zm339.21 0l-28.3-76.99h-107.32l-28.3 76.99h-18.81l93.34-247.543h16.22l92.3 247.545zm-75.92-207.148q-1.9-5.178-3.11-10.185-1.21-4.315-2.59-8.63h-.69q-2.94 11.392-5.7 18.47l-41.586 114.794h95.415zm137 207.148V99.262h65.05q29.16 0 46.41 15.71t17.25 41.602q0 21.578-11.56 37.46-11.39 15.708-31.92 22.268v.69q25.71 2.417 40.54 18.47 14.84 15.882 14.84 40.567 0 31.24-20.19 51.09-20.188 19.68-54.006 19.68zm17.08-231.833v95.806h34.51q26.92 0 43.13-13.81 16.22-13.81 16.22-37.46 0-44.536-52.63-44.536zm0 111.342V331.27h45.89q29.16 0 44.51-13.984 15.53-13.982 15.53-39.703 0-51.26-69.538-51.26zm277.28 124.806q-52.45 0-83.68-34.87-31.06-34.87-31.06-90.626 0-59.21 31.92-94.77 32.09-35.734 87.48-35.734 50.03 0 80.92 34.352 31.06 34.18 31.06 89.764 0 61.454-31.75 96.67-31.75 35.214-84.89 35.214zm1.72-240.463q-43.14 0-71.09 31.244-27.78 31.24-27.78 81.82 0 51.09 26.4 81.48 26.4 30.21 70.393 30.21 45.9 0 72.65-29.87 26.746-30.04 26.746-83.55 0-52.48-26.227-81.82-26.055-29.52-71.088-29.52zm292.29 236.148l-32.96-72.502q-10.18-22.44-20.36-30.03-10.18-7.77-25.538-7.77h-30.71v110.31h-17.08V99.263h68.67q32.783 0 51.42 17.78 18.81 17.608 18.81 46.61 0 26.755-15.35 44.71-15.35 17.95-42.96 23.13v.69q14.663 5.87 28.64 35.733l36.75 78.89zm-109.56-231.833v105.99h42.61q28.3 0 44.87-14.845 16.74-14.845 16.74-40.74 0-23.648-15.01-36.94-15.01-13.465-42.964-13.465zm171.16 223.03v-19.507q26.57 16.917 53.83 16.917 28.984 0 44-11.91 15.01-12.085 15.01-33.663 0-18.99-10.18-30.21-10.01-11.4-43.656-30.9-37.616-21.93-47.62-36.6-10.01-14.85-10.01-34.18 0-26.24 20.36-44.54t54.35-18.3q22.085 0 44.17 7.42v17.95q-21.74-9.84-46.413-9.84-25.19 0-40.03 12.77-14.67 12.77-14.67 32.45 0 18.99 10.01 30.21 10.18 11.22 43.65 30.55 34.68 19.68 46.07 35.04 11.56 15.19 11.56 35.04 0 28.48-19.84 46.43-19.67 17.95-55.73 17.95-12.77 0-29.51-3.97-16.57-3.97-25.37-9.15z" style="line-height:1.25;-inkscape-font-specification:'Segoe UI, Light';font-variant-ligatures:normal;font-variant-caps:normal;font-variant-numeric:normal;font-feature-settings:normal;text-align:start" font-weight="300" font-size="304.027" letter-spacing="0" word-spacing="0" font-family="Segoe UI"/>
</svg>
